<?xml version="1.0" encoding="UTF-8"?>
<svg id="Layer_1" xmlns="http://www.w3.org/2000/svg" version="1.1" viewBox="0 0 86 78">
  <!-- Generator: Adobe Illustrator 30.2.1, SVG Export Plug-In . SVG Version: 2.1.1 Build 1)  -->
  <defs>
    <style>
      .st0 {
        fill: #283a5a;
      }
    </style>
  </defs>
  <path class="st0" d="M65.5,23.3l1.8-2.5,1.9,1.3c.8.5,1.9.3,2.4-.5s.3-1.9-.5-2.4l-3.3-2.2s0,0,0,0,0,0,0,0l-8.3-5.6c-.8-.5-1.9-.3-2.4.5s-.3,1.9.5,2.4h0l1.7,1.2-1.6,2.2c-2.9-1.5-6.1-2.6-9.3-3.2v-3.2h2.4c1,0,1.7-.8,1.7-1.7V2.1c0-1-.8-1.7-1.7-1.7h-15.7c-1,0-1.7.8-1.7,1.7v7.4c0,1,.8,1.7,1.7,1.7h2.4v3.2c-17.3,3-28.9,19.5-25.9,36.8,3,17.3,19.5,28.9,36.8,25.9,17.3-3,28.9-19.5,25.9-36.8-1.1-6.5-4.2-12.4-8.9-17.1M62.2,17.3l2.2,1.5-1.5,2.1c-.7-.6-1.4-1.1-2.2-1.6l1.4-2ZM36.9,3.9h12.3v3.9h-12.3v-3.9ZM41,11.2h3.9v2.8c-.7,0-1.3-.1-2-.1s-1.3,0-2,.1v-2.8ZM43,74.1c-15.7,0-28.4-12.7-28.4-28.4,0-15.7,12.7-28.4,28.4-28.4s28.4,12.7,28.4,28.4h0c0,15.7-12.7,28.3-28.4,28.4"/>
  <path class="st0" d="M64.8,44c-1,0-1.7.8-1.7,1.7h0c0,11.1-9,20.1-20.1,20.1-10.4,0-19.1-8-20-18.3h14.8c1,2.9,4.1,4.5,7,3.5,2.9-1,4.5-4.1,3.5-7s-4.1-4.5-7-3.5c-1.7.5-3,1.8-3.5,3.5h-16.6c-1,0-1.7.8-1.7,1.7h0c0,13,10.5,23.5,23.5,23.5s23.5-10.5,23.5-23.5-.8-1.7-1.7-1.7h0M43,43.7c1.1,0,2,.9,2,2.1,0,1.1-.9,2-2,2-1.1,0-2-.9-2-2,0-1.1.9-2,2-2.1"/>
  <path class="st0" d="M41.1,24.7c1,0,1.6-.9,1.6-1.9,0-.9-.9-1.6-1.8-1.6h0c-.9,0-1.6.9-1.6,1.9,0,0,0,0,0,0,0,1,.9,1.7,1.9,1.6"/>
  <path class="st0" d="M63.7,39.8c0,0,.2,0,.2,0,.9-.2,1.5-1.1,1.3-2.1,0,0,0-.2,0-.3-.3-.9-1.3-1.4-2.3-1.1-.9.3-1.3,1.2-1.1,2.1,0,0,0,0,0,0,.2.8,1,1.4,1.8,1.3"/>
  <path class="st0" d="M49.9,25.9c.9.4,1.9,0,2.3-.9s0-1.9-.9-2.3c0,0,0,0,0,0,0,0-.1,0-.1,0-.9-.3-1.8.2-2.2,1.1-.3.9.1,1.9,1,2.2"/>
  <path class="st0" d="M58.8,31.5c1,0,1.7-.9,1.6-1.9,0-.4-.2-.8-.5-1h0c-.7-.7-1.7-.7-2.4,0,0,0,0,0,0,0-.7.7-.7,1.8,0,2.5.4.4.9.6,1.4.5"/>
</svg>