<?xml version="1.0" encoding="UTF-8"?>
<svg id="Layer_1" xmlns="http://www.w3.org/2000/svg" version="1.1" viewBox="0 0 86 78">
  <!-- Generator: Adobe Illustrator 30.2.1, SVG Export Plug-In . SVG Version: 2.1.1 Build 1)  -->
  <defs>
    <style>
      .st0 {
        fill: #283a5a;
      }
    </style>
  </defs>
  <path class="st0" d="M43.2,41.4c1,0,1.7-.8,1.7-1.7,0-1-.8-1.7-1.7-1.7h-14.6c-1,0-1.7.8-1.7,1.7,0,1,.8,1.7,1.7,1.7h14.6Z"/>
  <path class="st0" d="M22.7,34.9l-4.2,4.2-2-2c-.7-.7-1.8-.6-2.4,0-.6.7-.6,1.7,0,2.4l3.2,3.2c.7.7,1.8.7,2.4,0h0s5.4-5.4,5.4-5.4c.7-.7.6-1.8,0-2.4-.7-.6-1.7-.6-2.4,0"/>
  <path class="st0" d="M22.7,49.2l-4.2,4.2-2-2c-.7-.7-1.8-.6-2.4,0-.6.7-.6,1.7,0,2.4l3.2,3.2c.7.7,1.8.7,2.4,0h0s5.4-5.4,5.4-5.4c.7-.7.6-1.8,0-2.4-.7-.6-1.7-.6-2.4,0"/>
  <path class="st0" d="M28.6,26.2h21.7c1,0,1.7-.8,1.7-1.7,0-1-.8-1.7-1.7-1.7h-21.7c-1,0-1.7.8-1.7,1.7,0,1,.8,1.7,1.7,1.7"/>
  <path class="st0" d="M17.1,28.4c.7.7,1.8.7,2.4,0h0s5.4-5.4,5.4-5.4c.7-.7.6-1.8,0-2.4-.7-.6-1.7-.6-2.4,0l-4.2,4.2-2-2c-.7-.7-1.8-.7-2.4,0-.7.7-.7,1.8,0,2.4,0,0,0,0,0,0l3.2,3.2Z"/>
  <path class="st0" d="M76.8,31.6h-9.4V5.4c0-1-.8-1.7-1.7-1.7h-14.4v-1.6c0-1-.8-1.7-1.7-1.7s0,0,0,0h-24c-1,0-1.7.8-1.7,1.7v1.6h-14.4c-1,0-1.7.8-1.7,1.7,0,0,0,0,0,0v70.5c0,1,.8,1.7,1.7,1.7h67.5c1,0,1.7-.8,1.7-1.7v-42.6c0-1-.8-1.7-1.7-1.7h0M75,52.9h-18.9v-17.8h7.7v4c0,1,.8,1.7,1.7,1.7,1,0,1.7-.8,1.7-1.7v-4h7.7v17.8ZM27.1,3.8h20.6v4.6c0,.9-.7,1.6-1.6,1.6h-17.4c-.9,0-1.6-.7-1.6-1.6V3.8ZM11,7.2h12.7v1.3c0,2.8,2.3,5,5,5h17.4c2.8,0,5-2.3,5-5v-1.3h12.7v24.4h-9.4c-1,0-1.7.8-1.7,1.7v19.6h-20.6c-1,0-1.7.8-1.7,1.7v19.6H11V7.2ZM33.8,56.3h7.7v4c0,1,.8,1.7,1.7,1.7,1,0,1.7-.8,1.7-1.7h0v-4h7.7v17.8h-18.9v-17.8ZM75,74.2h-18.9v-17.8h7.7v4c0,1,.8,1.7,1.7,1.7,1,0,1.7-.8,1.7-1.7h0v-4h7.7v17.8Z"/>
</svg>