<?xml version="1.0" encoding="UTF-8"?>
<svg id="Layer_1" xmlns="http://www.w3.org/2000/svg" version="1.1" viewBox="0 0 86 78">
  <!-- Generator: Adobe Illustrator 30.2.1, SVG Export Plug-In . SVG Version: 2.1.1 Build 1)  -->
  <defs>
    <style>
      .st0 {
        fill: #283a5a;
      }
    </style>
  </defs>
  <path class="st0" d="M80.1,28.6h-15.1l-1.3-7.6c-.8-4.7-4.9-8.1-9.6-8.1h-.8c-.4-5.7-5.3-10-10.9-9.6-5.2.3-9.3,4.4-9.6,9.6h-1.4c-3.5,0-6.5,2.3-7.4,5.7l-2.6,9.6c0,.1,0,.3,0,.4H5.9c-3.2,0-5.7,2.6-5.7,5.7v34.6c0,3.2,2.6,5.7,5.8,5.7h74.2c3.2,0,5.7-2.6,5.8-5.7v-34.6c0-3.2-2.6-5.7-5.8-5.7M43,6.8c3.8,0,6.9,3.1,6.9,6.9,0,3.8-3.1,6.9-6.9,6.9-3.8,0-6.9-3.1-6.9-6.9,0-3.8,3.1-6.9,6.9-6.9M24.5,29.1l2.6-9.6c.5-1.8,2.2-3.1,4.1-3.1h1.8c1.5,5.5,7.2,8.7,12.6,7.2,3.5-1,6.2-3.7,7.2-7.2h1.2c3.1,0,5.7,2.2,6.2,5.2l1.3,7.6c.1.7,0,1.4-.1,2l-3.5,11c0,.1-.1.2-.3.2h-4.5c-.2,0-.3-.1-.3-.3,0,0,0,0,0,0,0,0,0-.2,0-.3l2.2-15.7c.1-.9-.5-1.8-1.5-2s-1.8.5-2,1.5h0l-.4,3h-16.8l-.4-3c-.1-1-1-1.6-1.9-1.5-1,.1-1.6,1-1.5,1.9,0,0,0,0,0,0l2.1,15.7c0,0,0,.2,0,.3,0,.1,0,.3-.2.3,0,0,0,0,0,0h-4.5c-.1,0-.2,0-.3-.2l-3.4-10.7c-.2-.8-.3-1.6,0-2.4M82.4,68.9c0,1.3-1,2.3-2.3,2.3H5.9c-1.3,0-2.3-1-2.3-2.3v-34.6c0-1.3,1-2.3,2.3-2.3h15.2c0,.2,0,.3.1.5l3.4,10.7c.5,1.6,1.9,2.6,3.6,2.6h4.5c2.1,0,3.7-1.7,3.7-3.7,0-.3,0-.6-.1-.9l-1.2-9.1h15.9l-1.3,9.1c-.5,2,.7,4,2.7,4.6.3,0,.6.1,1,.1h4.5c1.6,0,3.1-1.1,3.6-2.6l3.5-11c0,0,0-.1,0-.2h15.3c1.3,0,2.3,1,2.3,2.3v34.6h0Z"/>
</svg>