<?xml version="1.0" encoding="UTF-8"?>
<svg id="Layer_1" data-name="Layer 1" xmlns="http://www.w3.org/2000/svg" viewBox="0 0 800 199.169999999999163">
  <defs>
    <style>
      .cls-1 {
        fill: #fff;
      }
    </style>
  </defs>
  <g>
    <path class="cls-1" d="M66.347655796111212,70.596927360042173c-3.635912245738837-6.142593574020793-10.827521120943857-9.213867688444225-21.579270452813034-9.213867688444225h-21.808127555974352v73.871554120885776h21.808127555974352c11.160354712644221,0,18.941858982171652-5.502183653633438,23.344512808605941-16.509543742509777,2.407103321811519-6.03857174031964,3.610654982730011-13.233128051944732,3.610654982730011-21.577819407169955,0-11.518445567368872-1.793447055270917-20.374222401083898-5.375897338522918-26.570323282761819M48.762388443783493,154.914150874909865H.000544142118997V41.723477243986963h48.761844301664496c7.013311643214365.104021833701154,12.848328888554533.921277940419714,17.50799917245422,2.457663193036751,7.934544238461058,2.610657816799176,14.35945687815456,7.398156151780313,19.274737919035942,14.360907923784907,3.94199218362246,5.631462750354331,6.629963525492713,11.722045407523183,8.063823335208326,18.274740753127844,1.43086702810615,6.555642782039286,2.150041519172191,12.800761798956955,2.150041519172191,18.738304487186724,0,15.051877715398405-3.020759588375768,27.7976811610597-9.062324110313057,38.241854164244614-8.190109650302475,14.080130594106777-20.836380434688181,21.117203109542061-37.934277835557623,21.117203109542061"/>
    <path class="cls-1" d="M157.240020518684105,104.693053464975492c-.359587245532566-5.784502719292504-2.112903820033353-10.175276109611332-5.261491459512399-13.17077843496827-3.147045903490834-2.994005934550842-7.051900387997193-4.490306051597145-11.7101196262538-4.490306051597145-5.068321009815008,0-8.998432757343835,1.586899778657425-11.788929542097321,4.760744681154392-2.790451439566823,3.17379955731667-4.542271623257875,7.473927940842259-5.259949723525096,12.900339805411022h34.020490351388617ZM178.89361171492601,130.340647761687251c-.56314174052477,4.967246612574854-3.147091248667493,10.008813968579489-7.756247006503145,15.129145895262809-7.167848002973187,8.139595124262996-17.200422843777233,12.207918968179001-30.102259040002536,12.207918968179001-10.649223888963206,0-20.041434154537455-3.427913923520464-28.181029278794085-10.288185597811207-8.141091515068183-6.86027167427892-12.21086640460635-18.019175341292794-12.21086640460635-33.482605873899956,0-14.487239584071176,3.673049944864943-25.595628725034658,11.020691570603049-33.326573123345952,7.344648844130461-7.729538697854878,16.87951503333079-11.59575909241903,28.604507877294964-11.59575909241903,6.96130072638698,0,13.23317339712321,1.306077103806274,18.814076276255946,3.916734920608178,5.579451833513303,2.610703161971287,10.18566015491615,6.732488968365033,13.823068791464721,12.362455327915086,3.274873954603208,4.967291957750604,5.398161819935012,10.726492068845801,6.372901722840652,17.279187414443186.563141740522951,3.839512085911338.793449889343719,9.368449393366973.690924446435929,16.586766577211165h-57.286283934497988c.306125283057554,8.396656926897776,2.942040362881016,14.282188698277423,7.909332320624344,17.662580877368782,3.019263197588771,2.099526993133622,6.655175443328517,3.148542294296021,10.90478930082827,3.148542294296021,4.503682878497784,0,8.164852387269093-1.2793234499768,10.980561089868388-3.840963131537137,1.536430597794606-1.38184889286731,2.891525836814253-3.301627608410854,4.069820234721192-5.759245456270946h22.34601203346665Z"/>
    <path class="cls-1" d="M247.665964761135911,75.051410722609944c6.551198954784013,4.197602940634169,10.314893906450379,11.417416515277182,11.288182763722034,21.655087587046182h-21.886892126658495c-.306079937882714-2.814257656956215-1.101026218010702-5.041567356009182-2.378898622356246-6.680478051518548-2.407103321822433-2.968794016705033-6.50213547437852-4.454664743278045-12.28813458447712-4.454664743278045-4.76074468115894,0-8.151475560364815.742935363283323-10.175230764443768,2.227355044227807-2.022304158444967,1.485870726569374-3.032685369656974,3.22581047417043-3.032685369656974,5.221315633599261,0,2.509674109885054,1.075768954991872,4.326882037356881,3.225810474164064,5.453165518393689,2.150086864359764,1.178294397885111,9.753293901926554,3.199102165516706,22.806673676279388,6.066821784957938,8.702736864771396,2.047516076282591,15.230174947346313,5.144092798898782,19.582268902554461,9.291135868312267,4.300128383531046,4.199053986269064,6.450169902714151,9.44567222806927,6.450169902714151,15.741305771026418,0,8.294131484006357-3.084650941332256,15.065254542315415-9.25250177838825,20.311872784110165-6.169347227840262,5.248069287425096-15.704168071889399,7.870652885510026-28.606004268116521,7.870652885510026-13.157401608046712,0-22.872016074861676-2.777074612650722-29.140895963987532-8.331269183136101-6.271872670736229-5.554194570479012-9.40703813813343-12.63139756666169-9.40703813813343-21.231608988545304h22.191475673742389c.462112688427624,3.889981266774157,1.460613463544178,6.653724397689984,2.995502325344205,8.292635093198442,2.713228604879077,2.918234145485258,7.729493352681857,4.377396563402726,15.051877715411138,4.377396563402726,4.298631992709488,0,7.716116525756661-.640455265564924,10.2510025534948-1.919778715542634,2.533434982101426-1.279323449970434,3.800877995955489-3.199056820331862,3.800877995955489-5.760696501903112,0-2.456166802227926-1.025254428940571-4.325385646544419-3.071274114407061-5.604709096526676-2.049057812273531-1.279323449978619-9.650768459021492-3.481421231174863-22.806628331095453-6.604706262451145-9.472425881900563-2.353641359335597-16.152903933411835-5.298629158640324-20.044426936176023-8.830519570692559-3.890026611958092-3.481421231179411-5.835017245342897-8.497685978986738-5.835017245342897-15.051877715393857,0-7.729493352681857,3.034181760468528-14.371337314262746,9.099461809452805-19.927028275554221,6.066821784948843-5.554149225305082,14.603141853876878-8.332765573941288,25.610501942752308-8.332765573941288,10.442676612377909,0,18.967116245188663,2.074315075285995,25.571822507652541,6.22135814469857"/>
    <path class="cls-1" d="M290.525907682892466,154.914740362204611h-22.194468455361857v-83.702070857505532h22.194468455361857v83.702070857505532ZM290.525907682892466,61.22906745396449h-22.194468455361857v-20.195970514300825h22.194468455361857v20.195970514300825Z"/>
    <path class="cls-1" d="M322.405561585831492,126.346962077440367c2.968748671524736,7.065277214900561,8.294086138827879,10.598709362931004,15.973110310645097,10.598709362931004,5.117293799887193,0,9.444130492085606-1.933155542458735,12.977607985281793-5.797879546206786,3.531845066883761-3.864769348931077,5.297042077489095-10.020694404687674,5.297042077489095-18.469362248443758,0-7.934544238469243-1.677499440278552-13.974612369595889-5.028145183921879-18.12170078419058-3.353638525251881-4.147043069412575-7.846892013292745-6.221358144702208-13.478309418480421-6.221358144702208-7.679024171793571,0-12.977607985278155,3.610700327903942-15.895842130760684,10.827566466110511-1.534934206986691,3.839512085909519-2.303081488106727,8.576450549662695-2.303081488106727,14.207867954847643,0,4.863270124052178.818661807153148,9.188655770601144,2.457617847853726,12.976156939654174M326.090491966824629,169.581320117278665c2.355137750133508,1.997001550243112,6.322387196776617,2.995502325360576,11.903290075908444,2.995502325360576,7.88253332162094,0,13.155905217261534-2.637411470630468,15.818573950904465-7.910783366258329,1.739985092772258-3.377354052291594,2.610703161972197-9.059331328691769,2.610703161972197-17.045886484016592v-5.375897338524737c-2.099572338302096,3.583946674075378-4.352139300370254,6.270376279941047-6.757700886208113,8.062372289564337-4.350688254757188,3.328335917064578-10.008859313766152,4.992503875594593-16.970160040127666,4.992503875594593-10.750252941059443,0-19.338629272017897-3.775620732948482-25.763496566524736-11.326771508489401-6.426409030490504-7.551196120725763-9.637391632117215-17.776986756375663-9.637391632117215-30.678777607423399,0-12.441219898594682,3.096576722625286-22.895822292251978,9.291135868314086-31.369702053847504,6.194604490886377-8.470977670334833,14.974609535526724-12.708665746537918,26.34001513396197-12.708665746537918,4.197602940625075,0,7.858772449393655.640409920390994,10.980606435041409,1.919733370364156,5.323886421670977,2.202052436024132,9.625511196010848,6.246615407727404,12.90179085103955,12.132147179106141v-12.054878999229004h21.270243078486601v79.401942473972667c0,10.800812812282857-1.815711536657545,18.940407936534939-5.451669127582136,24.42032710876174-6.246570062550745,9.41891857423343-18.225677272715984,14.129103384165319-35.937230940146037,14.129103384165319-10.701189460644855,0-19.429228933620834-2.099526993125437-26.18702051019045-6.297084588588405-6.757700886219936-4.199099331443904-10.496138574865654-10.47092665701075-11.210869238688247-18.814121621429877h23.803678060588027c.615152657372164,2.560188635928171,1.613653432493265,4.402653826423375,2.995502325367852,5.528937307455635"/>
    <path class="cls-1" d="M426.105353848244704,87.414455537815229c-7.423368069627031,0-12.516991687663904,3.148542294295112-15.280689473414895,9.445672228065632-1.433905154875902,3.328381262238508-2.151537909978288,7.576453383737316-2.151537909978288,12.748796227278035v45.305680333517557h-21.808127555976171v-83.549030888570996h21.118699500349976v12.209370013802982c2.814212311786832-4.300083038354387,5.476881045438859-7.396659760971488,7.986555155308452-9.291135868317724,4.503682878521431-3.378850443105875,10.212368463593521-5.068275664657449,17.123154663904643-5.068275664657449,8.650771293090656,0,15.729425334928237,2.264447398177253,21.23306003419566,6.794883930516335,5.502183653612519,4.531887577973976,8.255542739227167,12.045945999567266,8.255542739227167,22.539137137985563v56.36505133924129h-22.423280213337421v-50.913382211656426c0-4.402608481250354-.5883990035436-7.780007878721335-1.765197010619886-10.135100283689098-2.15153790999284-4.301624774338052-6.2481117985335-6.4516662935157-12.288179929659236-6.4516662935157"/>
    <path class="cls-1" d="M538.069667194744397,71.522603782534134c-3.63595759092459-6.144089964829618-10.827611811291717-9.215364079253959-21.579315797973322-9.215364079253959h-21.808127555976171v73.874501557324038h21.808127555976171c11.160354712632397,0,18.941858982156191-5.503634699264694,23.344512808604122-16.510994788138305,2.407103321800605-6.040068131127555,3.610654982707274-13.233128051938365,3.610654982707274-21.577819407169045,0-11.519941958174968-1.793492400433024-20.375718791890904-5.375851993338074-26.570323282762729M520.484354497251843,155.839827297407282h-48.761844301685414V42.647657275671008h48.761844301685414c7.013266298041344.104021833702063,12.848283543380603.921277940421533,17.508044517611779,2.459159583848304,7.934498893293494,2.609161425988532,14.35945687817366,7.398156151775765,19.274692573890206,14.359456878150922,3.942037528799119,5.632913795983768,6.629918180296954,11.723496453157168,8.063823335198322,18.276191798757282,1.432363418891327,6.554191736409848,2.150086864334298,12.799310753327518,2.150086864334298,18.736808096383356,0,15.051877715395676-3.020804933550608,27.799177551865796-9.062324110313057,38.241854164241886-8.190154995476405,14.080130594105867-20.83638043469,21.118699500354523-37.934323180721549,21.118699500354523"/>
    <path class="cls-1" d="M596.825225521393804,140.020799894749871c2.046065030652244,1.68942522155703,4.554197404559091,2.533389636930224,7.524487812077496,2.533389636930224,4.710184809919156,0,9.048992628573615-1.381848892869129,13.016242075209448-4.145592023786776,3.967249446663118-2.765194176546174,6.029638740656083-7.806761532550809,6.181182318792708-15.129145895274632v-8.139595124254811c-1.380307156901836.872214460010582-2.777029267475882,1.573568296917074-4.184180768546867,2.112949165224563-1.408602546714974.53638808668893-3.340216353173673,1.035638474249936-5.796383155415242,1.496254771869644l-4.915235695720185.92272898605097c-4.609155757845656.817210761547358-7.909286975440409,1.815711536668459-9.90628852568625,2.994005934557208-3.378941133449189,1.997046895411586-5.068321009839565,5.095074663661762-5.068321009839565,9.291181213489835,0,3.738437688642989,1.049015301170584,6.42486729450593,3.148496949128457,8.063823335193774M580.544584227249288,81.19813070764485c5.785953764911028-7.371402497945382,15.716093853170605-11.057829269741887,29.79613375693225-11.057829269741887,9.163353162386557,0,17.302993631819845,1.817207927469099,24.418830717941091,5.451623782416391,7.114386040486352,3.635957590919134,10.674526497159604,10.49618392002958,10.674526497159604,20.580815022854949v38.394894133178241c0,2.662668733656574.05051452605403,5.888524552997296.152994623773338,9.67747676768704.154536359746999,2.866223228627859.588399003554514,4.811259207193871,1.306122448973838,5.835017245339259.71618170947113,1.025254428942389,1.790499618848116,1.869218844321949,3.224314083377976,2.533389636923857v3.22585581934436h-23.80367806059985c-.667118229028347-1.689470566730051-1.12773452665715-3.276370345387477-1.383299938488562-4.760744681152573-.257107147823262-1.484374335763277-.460616297626984-3.175295948121857-.613701611735451-5.068321009835017-3.020714243204566,3.276370345390205-6.502135474393071,6.066821784957028-10.444173003190372,8.369948618241324-4.710184809922794,2.713183259701509-10.034071231601047,4.069774889544533-15.971568574661433,4.069774889544533-7.577995119720072,0-13.836445618377184-2.163418346091021-18.77698392230559-6.488803992638168-4.94053830390294-4.325340301375036-7.410036587882132-10.454557048482457-7.410036587882132-18.392094068569349,0-10.289681988619122,3.967249446643109-17.736856275630998,11.901839030300835-22.346012033475745,4.352048610020574-2.508132373908666,10.751703986692519-4.300128383531046,19.198875439620679-5.374400947714093l7.448670677833434-.921232595245783c4.044608316886297-.512627214478925,6.93608880852662-1.153037134866281,8.677524946933772-1.919733370367794,3.121833985658668-1.331334366826013,4.683431156088773-3.404153051302274,4.683431156088773-6.221358144701298,0-3.427913923518645-1.190129488802995-5.797879546206786-3.570479156805959-7.102460259202417-2.380440358328997-1.306077103803545-5.873651335256-1.958367460305453-10.481356047477675-1.958367460305453-5.170801107562511,0-8.830519570687102,1.280819840781987-10.980606435055961,3.839466740731041-1.537836298230104,1.894521452521076-2.561639681531233,4.454664743274407-3.072770505215885,7.680475217447565h-21.117157764383592c.460616297636079-7.320887971911361,2.508132373915942-13.337149885645886,6.142548228866872-18.047380040758981"/>
    <path class="cls-1" d="M687.086067978078063,133.876891310622341l17.277691023635271-61.740903332582093h23.267244628721528l-28.718913756294569,82.321718355444318c-5.530388353079616,15.869088476937577-9.906288525684431,25.711485649661881-13.132144345036068,29.527191518182917-3.225765129001957,3.811262041268492-9.675935031704284,5.719114975526281-19.350419017775494,5.719114975526281-1.946487024189992,0-3.508174884995242-.011880436101819-4.684972892082442-.037137699126106-1.178339743059041-.026753653829473-2.944987799302908-.115902269811158-5.298583813475489-.270438629559067v-17.507999172451491l2.763697785738259.154536359747908c2.151537909994659.101029052087142,4.197602940639626.025257263024287,6.144089964831437-.231804539619588,1.94494528819996-.25706180263569,3.582359592903231-.843964415375922,4.915235695722004-1.765197010614429,1.277827059155243-.870718069207214,2.469498283968278-2.687971341847515,3.57056984715382-5.451669127591231,1.099529827202787-2.763743130913099,1.548265688727042-4.454664743273497,1.34321480294966-5.068321009838655l-30.717457042526803-87.389994020100858h24.343013583700667l18.277733534738218,61.740903332582093Z"/>
    <path class="cls-1" d="M786.408781093321522,75.975772134999715c6.551198954786742,4.199053986269973,10.314939251626129,11.41741651528082,11.288137418549013,21.655087587045273h-21.886846781482745c-.306079937881805-2.814257656961672-1.101071563198275-5.040070965203995-2.378898622346242-6.680478051521277-2.407103321813338-2.968794016706852-6.502135474380339-4.453168352465582-12.288179929662874-4.453168352465582-4.760699335973186,0-8.151430215193614.741438972478136-10.175185419257105,2.225858653418072-2.022304158434054,1.485870726574831-3.032685369666069,3.22581047417043-3.032685369666069,5.222812024405357,0,2.508177719082596,1.075768954975501,4.326882037360519,3.225855819346179,5.451669127588502,2.149996173986437,1.178294397884201,9.75320321156687,3.200553211148872,22.806628331092725,6.066821784952481,8.702736864770486,2.049012467090506,15.230174947371779,5.145543844536405,19.582314247743852,9.292632259127458,4.300083038353478,4.197557595460239,6.450079212361743,9.444175837260445,6.450079212361743,15.741305771026418,0,8.292635093192075-3.084650941340442,15.063758151502952-9.25250177838825,20.310376393298611-6.169301882677246,5.248069287427825-15.704122726721835,7.87214927632067-28.60600426811834,7.87214927632067-13.157356262880057,0-22.87192538452291-2.777119957827381-29.140805273646038-8.33131452831276-6.271872670737139-5.555645616112088-9.407128828484929-12.632848612292946-9.407128828484929-21.233060034179289h22.191475673744208c.462158033602464,3.89147765758571,1.46065880873175,6.655220788498809,2.99559301570298,8.294131484009995,2.713183259684229,2.918234145478891,7.729448007499741,4.375854827416333,15.051877715392038,4.375854827416333,4.298541302368903,0,7.71611652577667-.640364575215244,10.251002553502985-1.919733370366885,2.533344291754474-1.277827059165247,3.800832650800658-3.197560429529403,3.800832650800658-5.759200111092468,0-2.457663193035842-1.025254428946937-4.325385646551695-3.071319459591905-5.604709096528495-2.048967121925671-1.280865185959556-9.650723113865752-3.481421231177592-22.806628331103639-6.606202653258151-9.472425881886011-2.353596014159848-16.152858588247909-5.297132767843323-20.044381591003912-8.830519570698925-3.88998126676961-3.479924840366948-5.835017245317431-8.497685978984919-5.835017245317431-15.050381324587761,0-7.729493352673671,3.034136415268222-14.372833705066114,9.099507154614912-19.927028275547855,6.066821784950662-5.554194570485379,14.603141853869602-8.33126918313701,25.610411252402628-8.33126918313701,10.442721957542744,0,18.967161590378964,2.072773339306877,25.571867852815558,6.218365363087287"/>
    <path class="cls-1" d="M268.520619301738407.611681546675754v2.665616170093926h7.540812075419126v19.716037171705466h3.062341114757146V3.277297716769681h7.542263121044925V.611681546675754h-18.145416311221197ZM246.439060334590067,22.993334888475147h16.469413261752379v-2.665661515265128h-13.5139960719589v-7.588333819850959h12.280743320791771v-2.589889726203182h-12.280743320791771V3.35456589664318h13.286680704783976V.611681546675754h-16.242097894577455v22.381653341799392ZM221.904418037179312,22.993334888475147h2.955371844619549v-7.800821314499444l3.647792681843384-3.445734577681833,8.019294372382319,11.246555892181277h3.967249446642199l-9.760685165603718-13.349075666928002,9.563070888679249-9.032577674871391h-4.239229812193116l-11.197492411750318,10.955303826849558V.611681546675754h-2.955371844619549v22.381653341799392ZM196.304345484897567,22.993334888475147h3.0311436336724v-9.598712197003806h6.705735314544654c1.205048051713675,0,2.087691902198458.136670360411699,2.650788297534746.411552817211486.986620339024739.49779934192884,1.514120771218586,1.478479462885844,1.583952342228258,2.940543972065825l.182786404375292,3.732542815768284c.040085135571644.873665505642748.090599661613851,1.462064509180891.151543578138444,1.768144447058148.060943916522774.304628892243272.142655923637903.552757695215405.243684975734141.745928144900063h3.717669598029715v-.502243169176836c-.466601860846822-.203554494979471-.791998843685178-.661178010990625-.974739902897454-1.371419502395838-.111458442564981-.416041989631594-.182786404385297-1.052008082772772-.213983885458219-1.904905497816799l-.105518224501793-3.001442543409212c-.051965571688015-1.300136885750362-.297146938221886-2.239235480330535-.739942581670221-2.818701484205121-.441299252659519-.579511349046697-1.099529827224615-1.046067864722318-1.973240678026741-1.401211283010525.995507993499814-.518567432533928,1.769640837850602-1.203551660909397,2.32389492387847-2.05790012158468.554254086034234-.852897415040388.830587588455273-1.949479805811279.830587588455273-3.289747172302668,0-2.57052733605633-1.03264569262501-4.332776910237044-3.096531377439533-5.288199768168852-1.087649391097329-.496257605949722-2.469498283958274-.745882799728861-4.144095632986136-.745882799728861h-10.173734373611296v22.381653341799392ZM199.335489118569967,10.865676881791842V3.216399145423566h7.202038265653755c1.007433774801029,0,1.811267709416825.153039968937264,2.414539930695355.457623516010244,1.12628348103317.579511349045788,1.689425221545207,1.665664349337021,1.689425221545207,3.260000736858274,0,1.484419680939936-.402665162723679,2.509674109885054-1.207995488161941,3.078756068457551-.805330325436444.569081958572497-1.898965279747244.852897415042207-3.282310563430656.852897415042207h-6.81569736630172ZM169.774107337700116,22.993334888475147h3.108457158730744l2.421976539525531-6.70423892373492h8.852784052108291l2.268936570612823,6.70423892373492h3.322395699004119L181.6268828875709.611681546675754h-3.427868578343805l-8.42490697152698,22.381653341799392ZM176.173762714362056,13.821048726402296l3.610654982727283-9.888467871525791,3.396671097259969,9.888467871525791h-7.007326079987251ZM142.191861107720797,22.993334888475147h2.895969664082259v-13.20941252490411c0-.528951477829651-.01632426335982-1.353598848235379-.046025353614823-2.475438502021461-.031197481083836-1.123336044595817-.046070698809672-1.958367460303634-.046070698809672-2.506681328278319v-.686435274010364l6.451620948349955,18.877967629214254h3.004435325015947l6.389271331365308-18.877967629214254c0,1.20949187896349-.010429390483296,2.341715578054391-.029746435449852,3.398167488073341-.02076809060236,1.056451910027135-.031197481072923,1.812764100230197-.031197481072923,2.270387616236803v13.20941252490411h2.894473273269796V.611681546675754h-4.311963474459844l-6.390767722165947,18.92254193719873-6.435296684989225-18.92254193719873h-4.344702691520979v22.381653341799392ZM116.302078226101912,22.993334888475147h2.894473273251606V4.931081629997607l11.328267899317325,18.06225325847754h3.405604096928982V.611681546675754h-2.894473273259791v18.083021349076262L119.87409911888335.611681546675754h-3.572020892781438v22.381653341799392ZM98.563725559664817,20.951759030248468c-2.814212311802294,0-4.848396906329071-.851401024234292-6.102463093287952-2.554203072703785-1.254066186948876-1.702847393646152-1.88109928043923-3.794937777918676-1.88109928043923-6.274865452362974,0-3.101020549866007.731054927183322-5.445683564355932,2.193164781550877-7.037072515434375,1.463560900001539-1.591343605907241,3.35209678927913-2.386289886044324,5.668600449500445-2.386289886044324,2.3862898860325,0,4.267389166460816.802337543820613,5.64479423208013,2.40859971262671,1.375908674822313,1.6062168236258,2.063885684802699,3.726557252531165,2.063885684802699,6.359524895916365,0,2.490311719743659-.595835612406518,4.693860546578435-1.790499618813556,6.609150089698232-1.193122270425192,1.916740588750145-3.12473607690572,2.875156228304149-5.796383155393414,2.875156228304149M98.259142012600933.002469107362231c-3.778568169399477,0-6.632910961923699,1.381848892870039-8.563073722770241,4.144095632973404-1.503691380712553,2.153034300793479-2.255559743684898,4.742878681815455-2.255559743684898,7.769623833425612,0,3.352096789281859.879651068875319,6.124727574686403,2.635960425008307,8.319388747027915,1.97024789639363,2.274831443476614,4.677490938036499,3.413040705795538,8.121774470087985,3.413040705795538,3.686426771802871,0,6.525941691767002-1.300136885746724,8.517003023949655-3.900410657246539,1.695365439619309-2.213978217312615,2.543773682235951-4.992549220767614,2.543773682235951-8.334261964748293,0-3.087643722956273-.741438972478136-5.622529750691683-2.224316917426222-7.603207037575885C105.135783295404508,1.271408512036942,102.210067195874217.002469107362231,98.259142012600933.002469107362231M64.780979965934421.611681546675754v2.665616170093926h7.54230846622886v19.716037171705466h3.062341114758055V3.277297716769681h7.540812075417307V.611681546675754h-18.145461656404223ZM48.168956125701698,22.993334888475147h14.261375262515685v-2.665661515265128h-11.228735238031732V.611681546675754h-3.032640024483953v22.381653341799392ZM22.41584360449815.611681546675754v12.568957259337367c0,2.75331374043526.372964072436844,4.870706732912367,1.115899435724714,6.353584677861363,1.356591629841205,2.702799214400329,3.930111747516094,4.053450626194717,7.722056743809844,4.053450626194717,3.790448605506754,0,6.369908941223002-1.350651411794388,7.735433570738678-4.053450626194717.744431754107609-1.482877944948996,1.115899435734718-3.600270937426103,1.115899435734718-6.353584677861363V.611681546675754h-3.062386459931076v13.834903882398976c0,1.613698777660829-.251121584586144,2.898962445690813-.751823017763854,3.854385303626259-.931661985737264,1.757760401757878-2.693911559900698,2.635915079825281-5.283755940933588,2.635915079825281-2.160470909656397,0-3.695359771466428-.812766934298452-4.606208321403756-2.438300802896265-.615152657373983-1.075768954993691-.922728986056427-2.427916757591447-.922728986056427-4.051999580555275V.611681546675754h-3.062386459919253ZM0,22.993334888475147h3.032640024492139v-10.178223546050504h10.985050262286677v-2.665661515268766H3.032640024492139V3.35456589664318h12.493230815440256V.611681546675754H0v22.381653341799392Z"/>
  </g>
  <g>
    <path class="cls-1" d="M734.352557070187686,181.647135971947137c.287397752485049-.943703124306012.73419257781643-1.760009345712206,1.3403844759614-2.447711110634373.604984344587137-.687701764930353,1.359705333303282-1.226270662484239,2.262955412594238-1.616310469457858.903250079332793-.390039806975437,1.928463070411453-.585059710459973,3.079261634018621-.585059710459973.943099347514362,0,1.831858783836651.138264885131321,2.662655648229702.415398432191978.832004417969074.27713354705611,1.555329013575829.677437559484133,2.171181340363546,1.200912037259513.615852326805907.523474477781747,1.103703973916708,1.175553412041154,1.462347387752743,1.95502924919947.358643413850587.780683390737067.53856889756571,1.683329693256383.53856889756571,2.70975023792198,0,.96543908878175-.148529090583907,1.816764364064511-.445587271755358,2.555787156221413-.298265734740198.739022792163269-.693135756038828,1.400762155082703-1.185817617473731,1.985821865537218-.492681861456731.585059710460882-1.057816937809548,1.113968179365656-1.692990121919138,1.586121629911759-.637588291283464.472153450545193-1.293289886280036.923778490197037-1.970727445765078,1.354875118964628-.677437559485043.410568217864238-1.354875118948257.815702444612725-2.032312678442395,1.216006457029835-.677437559475948.400304012422566-1.29932765418198.826570426855142-1.863255176956955,1.277591689721703-.565135076374645.452228816442585-1.046948955579865.939476686766284-1.446649191180768,1.462951164545302-.400907789233315.523474477783566-.662946916505462,1.123628608012041-.786117381881922,1.801066167499812h11.208512347780925v2.309446225501233h-14.256377588635587c.102642054454918-1.293289886280945.333284788617675-2.396390083406914.693135756040647-3.309904368156822.358643413837854-.913514284758094.815098667826533-1.70929209526912,1.369365761935114-2.386729654752344.554267094121315-.677437559480495,1.180987403164181-1.272157698595947,1.878953373536206-1.785367970926927.697965970373843-.513210272335527,1.426120780302881-.995627928336944,2.185671983363136-1.447252967986969.923778490212499-.574795505011025,1.735254497258211-1.103703973912161,2.433220467642968-1.586121629907211.69675841679782-.481813879199763,1.277591689717156-.969665526313293,1.738877158029936-1.462347387753653.462493021890623-.492681861443998.811476007069359-1.026420544669236,1.046948955554399-1.601216049688446.236680502070158-.574191728219375.355020753100689-1.241968859048029.355020753100689-2.001520062092823,0-.595323915911649-.113510036695516-1.133892813466446-.339322556523257-1.616310469464224-.225812519840474-.482417655994141-.528908468908412-.897816088185209-.908080293636885-1.247402850162871-.380379378324506-.34837920839982-.82717420364861-.615852326808636-1.339176922401748-.800608024846952-.513210272332799-.184755698034678-1.057816937807729-.277133547052472-1.63261244280875-.277133547052472-.759551203060255,0-1.411630137312386.159397072812681-1.955029249202198.477587441659125-.544606665462197.318190368845535-.990193937217555.734192577835529-1.339176922399929,1.246799073376678-.348982985182374.513814049128996-.600154130221199,1.093439768467761-.754720988727058,1.740084711605959-.153359304909827.646644943142746-.220982305498183,1.298120100615961-.200453894607563,1.955029249201289h-2.616768612109809c-.061585232675498-1.108534188243539.050717250442176-2.134954732910955.338115002958148-3.079261634004979Z"/>
    <path class="cls-1" d="M751.133929198713304,185.619383479810494c.04105682179943-.862193257517902.143698876261624-1.703858104145183.30792616339204-2.524994539879117.164227287152244-.820532658945012.399700235633645-1.601216049685718.707626399036599-2.340238841847167.307926163408411-.739022792156902.729362363521432-1.385667735300558,1.263101046732118-1.939934829417325.533738683228876-.554267094125862,1.20513847480288-.995024151538018,2.016614481874058-1.323478725836139.81026845350425-.328454574289026,1.78114153340357-.492681861435813,2.910204132547733-.492681861435813,1.127855045551769,0,2.098728125451089.164227287146787,2.90899657893533.492681861435813.811476007065721.328454574298121,1.482875798641544.769211631710277,2.017822035455538,1.323478725836139.532531129652853.554267094116767.953967329764055,1.200912037260423,1.261893493157913,1.939934829417325.30792616339204.73902279216145.54339911187526,1.519706182902155.707626399027504,2.340238841847167.164227287143149.821136435733933.266869341605343,1.662801282361215.307926163406592,2.524994539879117.041056821784878.86219325752154.061585232664584,1.693593898705331.061585232664584,2.494201923545006,0,.800608024847861-.020528410879706,1.632008666028014-.061585232664584,2.494201923543187-.041056821801249.862193257522449-.143698876263443,1.703858104152459-.307926163406592,2.524390763092924-.164227287152244.821740212525583-.399700235635464,1.59638583535525-.707626399027504,2.325144422068661-.307926163393859.728758586712502-.729362363505061,1.369969538735859-1.261893493157913,1.924236632855354-.534946236813994.554267094124043-1.201515814043887.990797714007385-2.002123838890839,1.30898808285292-.800608024836038.317586592054795-1.775103765470703.476983664869294-2.924694775500029.476983664869294-1.129062599144163,0-2.099935679043483-.1593970728145-2.910204132547733-.476983664869294-.811476007071178-.318190368845535-1.482875798645182-.754720988728877-2.016614481874058-1.30898808285292-.533738683210686-.554267094119496-.955174883323707-1.195478046142853-1.263101046732118-1.924236632855354-.307926163402954-.728758586713411-.543399111884355-1.503404209543078-.707626399036599-2.325144422068661-.164227287130416-.820532658940465-.26686934159261-1.662197505570475-.30792616339204-2.524390763092924-.041056821790335-.862193257515173-.06158523268823-1.693593898695326-.06158523268823-2.494201923543187,0-.800608024839676.020528410897896-1.632008666023467.06158523268823-2.494201923545006ZM753.920962865882757,190.83843006105235c.050717250433081,1.016156339220288.214944537587144,1.970727445763259.492681861443998,2.863713319627095.276529770271736.892985873858379.72332459559766,1.647103085799245,1.339176922392653,2.262955412594238.615852326807726.615852326804088,1.47804558432108.923778490207042,2.586579772576442.923778490207042,1.108534188237172,0,1.970727445755983-.307926163402954,2.586579772541882-.923778490207042.61585232681864-.615852326794993,1.061439598553989-1.369969538735859,1.339176922401748-2.262955412594238.276529770273555-.892985873863836.440757057411247-1.847556980406807.492681861443998-2.863713319627095.050717250454909-1.01615633921665.07728342925293-1.934500838300664.07728342925293-2.755637274039145,0-.533738683228876-.006037767920134-1.1242323848046-.015698196577432-1.770877327945527-.010867982220589-.646644943140927-.061585232675498-1.293289886283674-.154566858484031-1.939331052630223-.091774072221597-.646644943141837-.22581251982956-1.278195466506077-.399700235635464-1.894047793308346-.17509526937647-.61585232680136-.431096628744854-1.154421224354337-.770419185282663-1.616310469456039-.338115002950872-.461889245098064-.76438141739709-.836230855509712-1.277591689702604-1.124232384809147-.513210272356446-.286793975715227-1.138723027797823-.431096628754858-1.877745819958363-.431096628754858-.739022792164178,0-1.365743101203407.144302653039631-1.878953373538025.431096628754858-.513210272343713.288001529299436-.93826913319208.662343139711083-1.277591689715337,1.124232384809147-.338115002956329.461889245101702-.595323915918925,1.000458142654679-.769211631715734,1.616310469456039-.175095269385565.615852326802269-.307926163402954,1.247402850166509-.400907789198754,1.894047793308346-.091774072245244.646041166346549-.143698876263443,1.292686109489296-.15335930492256,1.939331052630223-.010867982233322.646644943140927-.015698196564699,1.237138644716651-.015698196564699,1.770877327945527,0,.821136435738481.025358625223816,1.739480934822495.077283429242016,2.755637274039145Z"/>
    <path class="cls-1" d="M768.592738886718507,181.647135971947137c.287397752515972-.943703124306012.734192577841895-1.760009345712206,1.340384475983228-2.447711110634373.60498434456531-.687701764930353,1.359705333292368-1.226270662484239,2.262955412603333-1.616310469457858.903250079300051-.390039806975437,1.928463070389625-.585059710459973,3.079261634007707-.585059710459973.943099347512543,0,1.831858783836651.138264885131321,2.662655648218788.415398432191978.832004417978169.27713354705611,1.555329013554001.677437559484133,2.171181340372641,1.200912037259513.615852326796812.523474477781747,1.103703973920346,1.175553412041154,1.462347387767295,1.95502924919947.35864341382694.780683390737067.538568897543882,1.683329693256383.538568897543882,2.70975023792198,0,.96543908878175-.148529090587544,1.816764364064511-.445587271735349,2.555787156221413-.298265734747474.739022792163269-.693135756051561,1.400762155082703-1.185817617497378,1.985821865537218-.492681861433084.585059710460882-1.057816937785901,1.113968179365656-1.692990121902767,1.586121629911759-.637588291288921.472153450545193-1.293289886292769.923778490197037-1.970727445768716,1.354875118964628-.677437559474129.410568217864238-1.354875118957352.815702444612725-2.032312678440576,1.216006457029835-.677437559486862.400304012422566-1.299327654205626.826570426855142-1.863255176971506,1.277591689721703-.565135076352817.452228816442585-1.046948955554399.939476686766284-1.446649191189863,1.462951164545302-.400907789200573.523474477783566-.6629469165091,1.123628608012041-.786117381858276,1.801066167499812h11.208512347770011v2.309446225501233h-14.256377588633768c.10264205445128-1.293289886280945.333284788603123-2.396390083406914.693135756024276-3.309904368156822.358643413870595-.913514284758094.815098667828352-1.70929209526912,1.369365761949666-2.386729654752344.55426709413041-.677437559480495,1.180987403162362-1.272157698595947,1.878953373538025-1.785367970926927.6979659703793-.513210272335527,1.426120780310157-.995627928336944,2.185671983359498-1.447252967986969.923778490188852-.574795505011025,1.735254497272763-1.103703973912161,2.433220467653882-1.586121629907211.696758416786906-.481813879199763,1.27759168970988-.969665526313293,1.738877158019022-1.462347387753653.462493021890623-.492681861443998.811476007091187-1.026420544669236,1.046948955563494-1.601216049688446.236680502051968-.574191728219375.355020753106146-1.241968859048029.355020753106146-2.001520062092823,0-.595323915911649-.113510036708249-1.133892813466446-.339322556548723-1.616310469464224-.225812519818646-.482417655994141-.528908468901136-.897816088185209-.908080293624153-1.247402850162871-.380379378302678-.34837920839982-.827174203661343-.615852326808636-1.339176922407205-.800608024846952-.51321027233098-.184755698034678-1.057816937794996-.277133547052472-1.632612442805112-.277133547052472-.759551203062074,0-1.4116301373233.159397072812681-1.95502924919856.477587441659125-.544606665464016.318190368845535-.990193937212098.734192577835529-1.339176922392653,1.246799073376678-.348982985180555.513814049128996-.600154130241208,1.093439768467761-.754720988716144,1.740084711605959-.153359304908008.646644943142746-.220982305494545,1.298120100615961-.200453894605744,1.955029249201289h-2.616768612129817c-.061585232677317-1.108534188243539.050717250440357-2.134954732910955.338115002945415-3.079261634004979Z"/>
    <path class="cls-1" d="M795.627448479712257,180.199883003964715c-.636380737698346-.594720139116362-1.478045584337451-.89298587385565-2.524994539890031-.89298587385565-1.108534188238991,0-2.000916285318453.272303332726551-2.678353844794401.816306221405284-.677437559483224.544002888667819-1.206346028386179,1.231704653599991-1.585517853121928,2.063105294779234-.380379378300859.831400641177424-.642418505596652,1.729216729371728-.786117381847362,2.694052041354553-.143698876261624.96483531199101-.225812519827741,1.868085391299246-.246340930725637,2.709750237931075l.061585232673679.061585232675498c.615852326805907-1.005892133768612,1.380233744181169-1.734650720490208,2.294351805736369-2.186275760145691.912910507959168-.451021262863833,1.96589723143552-.677437559469581,3.156545063242447-.677437559469581,1.046948955576227,0,1.985218088753754.1799254837033,2.817222506724647.53856889754843.830796864382137.359850967422062,1.52876283477417.85736304319289,2.093897911132444,1.493743780885779.563927522764061.636380737693798.999854365856663,1.385667735306015,1.30778052927235,2.247860992822098.307926163377488.86219325752154.462493021885166,1.796235953172072.462493021885166,2.802128086948869,0,.800004248045298-.123170465361909,1.63140488922545-.369511396089365,2.4935981467479-.246340930705628.862193257523359-.652078934264864,1.647706862589985-1.216006457028925,2.355937038407319-.565135076378283.708230175822791-1.31381829718157,1.293289886281855-2.248464769625571,1.755179131385376-.933438918844331.461285468307324-2.089067696775601.692531979252635-3.463263673069378.692531979252635-1.621744460562695,0-2.92590232909788-.328454574289935-3.911266051965868-.985363722875263-.985363722887996-.656909148595332-1.744914925951889-1.497970218425507-2.278653609158937-2.524994539885483-.533738683247066-1.025816767874858-.88755188275718-2.155483143807032-1.061439598555808-3.387187797403385-.175095269383746-1.231100876809251-.26203912728306-2.421748708629821-.26203912728306-3.571339718656418,0-1.4985739952117.128000679684192-2.950657177522771.385209592659521-4.356853323723044.256001359372021-1.406196146194816.691928202448253-2.652995219575132,1.307780529246884-3.741604773705149.615852326785898-1.087402000562179,1.436988762534384-1.959859463530847,2.463409307214533-2.616768612117994,1.02642054466196-.656909148587147,2.319710430931082-.985363722876173,3.879869658841926-.985363722876173,1.806500158605559,0,3.243488921152675.476983664872932,4.31096628760497,1.431554771412266,1.067477366454114.954571106541152,1.683329693252745,2.33540862751488,1.847556980414083,4.141305009341522h-2.616768612122542c-.123170465361909-.985363722884358-.503549843688234-1.775103765484346-1.139930581370209-2.371031458184007ZM790.885385563338787,187.482034879990351c-.554267094108582.257208912958049-1.026420544663779.606191898142242-1.41646035163285,1.046948955565313-.390039806967252.441964610993637-.682267773818239.965439088772655-.876683900525677,1.570423433337055-.195623680272547.605588121354231-.293435520416097,1.247402850171966-.293435520416097,1.924236632859902,0,.677437559479586.10264205448766,1.314422073967762.307926163402954,1.909142213077757.205284108928026.595927692697842.497512075779014,1.108534188243539.877891454105338,1.539630817002035.379171824735749.431096628763953.8513252752673.775249399621316,1.416460351634669,1.031854535790444.563927522767699.256605136170947,1.205138474793785.384605815857867,1.924840409643366.384605815857867.718494381262644,0,1.348837351059046-.12800067968692,1.893444016524882-.384605815857867.543399111889812-.256605136169128,1.001061919434505-.611022112469982,1.370573315527508-1.062647152126374.369511396063899-.451021262864742.650871380674289-.96966552631784.846495060934103-1.554725236779632.194416126707438-.585059710459973.292227966850987-1.195478046141034.292227966850987-1.832462560621025,0-.676833782694302-.086943857897495-1.318648511506581-.262039127295793-1.924236632860811-.17388771579499-.604984344567129-.445587271722616-1.128458822347966-.815098667828352-1.570423433339784-.369511396076632-.440757057419432-.832004417954522-.795174033721196-1.386271512075837-1.062043375344729-.554267094135867-.266869341607162-1.200308260476959-.40030401241529-1.939331052637499-.40030401241529-.739022792158721,0-1.386271512101303.128604456475841-1.940538606211703.384605815855139Z"/>
  </g>
</svg>