<svg width="44" height="43" viewBox="0 0 44 43" fill="none" xmlns="http://www.w3.org/2000/svg">
<path d="M12.882 10.7573C11.4426 11.0477 10.5937 12.4582 10.8726 13.819C11.1515 15.1797 12.4924 16.0924 13.821 15.8518C15.2481 15.5904 16.1626 14.2172 15.9001 12.8191C15.6377 11.4211 14.3131 10.4711 12.882 10.7573ZM27.493 22.7467C27.7021 23.3109 27.7513 23.8668 27.7841 24.4891V32.2884H32.1925L32.2048 27.2147L32.1802 23.2362C32.0571 20.8923 31.4502 18.5276 28.9693 17.7933C28.3049 17.5942 27.6611 17.5361 26.9599 17.5112C25.1884 17.4531 23.5973 18.316 22.6623 19.8966L22.6172 17.8846H18.3893V32.2843H22.8099L22.8181 24.5264C22.896 23.2653 23.2159 21.9253 24.565 21.5602C25.7092 21.2491 27.0173 21.4606 27.493 22.7425V22.7467ZM15.5926 32.2843V17.8887H11.1679V32.2926L15.5926 32.2843Z" fill="black"/>
<path d="M21.5139 42.581C33.0236 42.581 42.354 33.1418 42.354 21.4979C42.354 9.85407 33.0236 0.414856 21.5139 0.414856C10.0042 0.414856 0.673828 9.85407 0.673828 21.4979C0.673828 33.1418 10.0042 42.581 21.5139 42.581Z" stroke="black" stroke-width="1.34764" stroke-miterlimit="10"/>
</svg>
