<svg width="43" height="43" viewBox="0 0 43 43" fill="none" xmlns="http://www.w3.org/2000/svg">
<path fill-rule="evenodd" clip-rule="evenodd" d="M22.0345 10.6287C15.9776 10.6287 12.9185 14.881 12.9185 18.428C12.9185 19.0835 12.9964 19.714 13.1563 20.299C13.5172 21.6265 14.2922 22.701 15.5306 23.1947C15.8259 23.3109 16.0883 23.1989 16.1704 22.8836C16.2278 22.6637 16.3672 22.1119 16.4328 21.8796C16.5148 21.5685 16.4861 21.4564 16.2483 21.1868C15.9407 20.83 15.6988 20.411 15.5552 19.8966C15.4609 19.5564 15.4035 19.1747 15.4035 18.7391C15.4035 15.5821 17.8148 12.7569 21.6818 12.7569C25.1059 12.7569 26.9882 14.8063 26.9882 17.5402C26.9882 18.3492 26.9061 19.1249 26.7544 19.8468C26.2213 22.3484 24.823 24.1779 22.9489 24.1779C21.6121 24.1779 20.6115 23.0993 20.9314 21.7759C21.1159 21.0208 21.3783 20.2409 21.6039 19.5025C21.854 18.6935 22.055 17.9385 22.055 17.3411C22.055 16.3205 21.4932 15.4701 20.3367 15.4701C18.9712 15.4701 17.8763 16.8515 17.8763 18.7018C17.8763 19.0503 17.9132 19.3614 17.9624 19.6352C18.0813 20.2824 18.2823 20.6807 18.2823 20.6807C18.2823 20.6807 16.8839 26.4679 16.642 27.4843C16.1581 29.5047 16.5681 31.9814 16.605 32.2303C16.6255 32.3755 16.8224 32.4128 16.9085 32.3008C17.0356 32.139 18.6595 30.1768 19.2131 28.2145C19.369 27.6586 20.1071 24.7836 20.1071 24.7836C20.55 25.6092 21.8458 26.3393 23.2237 26.3393C26.5617 26.3393 29.0263 23.9124 29.8259 20.3654C30.0104 19.5564 30.1048 18.6893 30.1048 17.7808C30.1048 14.0761 26.898 10.6287 22.0304 10.6287H22.0345Z" fill="black"/>
<path d="M21.5139 42.581C33.0236 42.581 42.354 33.1418 42.354 21.4979C42.354 9.85407 33.0236 0.414856 21.5139 0.414856C10.0042 0.414856 0.673828 9.85407 0.673828 21.4979C0.673828 33.1418 10.0042 42.581 21.5139 42.581Z" stroke="black" stroke-width="1.34764" stroke-miterlimit="10"/>
</svg>
