<svg width="44" height="43" viewBox="0 0 44 43" fill="none" xmlns="http://www.w3.org/2000/svg">
<path d="M30.4085 30.1851L23.4496 19.9589L22.6622 18.8014L17.6839 11.4833L17.2697 10.8776H11.1514L12.644 13.0722L19.2627 22.8006L20.05 23.9581L25.3687 31.774L25.7829 32.3797H31.9012L30.4085 30.1851ZM26.5087 30.9775L20.985 22.8546L20.1977 21.6971L13.7882 12.2715H16.548L21.7313 19.8925L22.5187 21.0499L29.2685 30.9733H26.5087V30.9775Z" fill="black"/>
<path d="M20.1976 21.7013L20.985 22.8587L20.05 23.9581L12.8942 32.3797H11.1309L19.2627 22.8007L20.1976 21.7013Z" fill="black"/>
<path d="M31.1629 10.8776L23.4494 19.9589L22.5144 21.0541L21.7271 19.9008L22.662 18.8014L27.8864 12.6491L29.3996 10.8776H31.1629Z" fill="black"/>
<path d="M21.5139 42.581C33.0235 42.581 42.354 33.1418 42.354 21.4979C42.354 9.85407 33.0235 0.414856 21.5139 0.414856C10.0042 0.414856 0.673828 9.85407 0.673828 21.4979C0.673828 33.1418 10.0042 42.581 21.5139 42.581Z" stroke="black" stroke-width="1.34764" stroke-miterlimit="10"/>
</svg>
