<svg width="44" height="43" viewBox="0 0 44 43" fill="none" xmlns="http://www.w3.org/2000/svg">
<path d="M29.3053 32.2801H13.7224C12.1395 32.2801 10.856 30.9775 10.856 29.3803V13.6157C10.856 12.0143 12.1436 10.7158 13.7224 10.7158H29.3053C30.8841 10.7158 32.1717 12.0185 32.1717 13.6157V29.3803C32.1717 30.9775 30.8841 32.2801 29.3053 32.2801ZM13.7224 12.396C13.054 12.396 12.5127 12.9436 12.5127 13.6198V29.3844C12.5127 30.0606 13.054 30.6082 13.7224 30.6082H29.3053C29.9737 30.6082 30.515 30.0606 30.515 29.3844V13.6198C30.515 12.9478 29.9737 12.396 29.3053 12.396H13.7224Z" fill="black"/>
<path d="M21.6039 28.9737C17.6836 28.9737 14.4932 25.7461 14.4932 21.7801C14.4932 17.814 17.6836 14.5864 21.6039 14.5864C25.5242 14.5864 28.7146 17.814 28.7146 21.7801C28.7146 25.7461 25.5242 28.9737 21.6039 28.9737ZM21.6039 16.5653C18.7621 16.5653 16.4533 18.9009 16.4533 21.7759C16.4533 24.6509 18.7662 26.9865 21.6039 26.9865C24.4416 26.9865 26.7544 24.6509 26.7544 21.7759C26.7544 18.9009 24.4416 16.5653 21.6039 16.5653Z" fill="black"/>
<path fill-rule="evenodd" clip-rule="evenodd" d="M29.1086 14.9681C29.1086 15.6402 28.5714 16.1836 27.9071 16.1836C27.2428 16.1836 26.7056 15.6402 26.7056 14.9681C26.7056 14.296 27.2428 13.7526 27.9071 13.7526C28.5714 13.7526 29.1086 14.296 29.1086 14.9681Z" fill="black"/>
<path d="M21.5139 42.581C33.0235 42.581 42.354 33.1418 42.354 21.4979C42.354 9.85407 33.0235 0.414856 21.5139 0.414856C10.0042 0.414856 0.673828 9.85407 0.673828 21.4979C0.673828 33.1418 10.0042 42.581 21.5139 42.581Z" stroke="black" stroke-width="1.34764" stroke-miterlimit="10"/>
</svg>
