<svg width="44" height="43" viewBox="0 0 44 43" fill="none" xmlns="http://www.w3.org/2000/svg">
<path d="M33.3817 15.4659C33.0905 14.3873 32.2786 13.5451 31.1919 13.2506C29.2727 12.7195 21.5059 12.7195 21.5059 12.7195C21.5059 12.7195 13.7595 12.7195 11.8404 13.2506C10.7742 13.5451 9.94173 14.3873 9.63007 15.4659C9.12158 17.4074 9.12158 21.4896 9.12158 21.4896C9.12158 21.4896 9.12158 25.5718 9.63007 27.5341C9.93763 28.5961 10.7701 29.4549 11.8404 29.7495C13.7595 30.2805 21.5059 30.2805 21.5059 30.2805C21.5059 30.2805 29.2727 30.2805 31.1919 29.7495C32.2786 29.4549 33.0905 28.5961 33.3817 27.5341C33.9066 25.576 33.9066 21.4896 33.9066 21.4896C33.9066 21.4896 33.9066 17.4074 33.3817 15.4659ZM19.0454 25.2607V17.7352L25.4713 21.4896L19.0454 25.2607Z" fill="black"/>
<path d="M21.5139 42.581C33.0236 42.581 42.354 33.1418 42.354 21.4979C42.354 9.85407 33.0236 0.414856 21.5139 0.414856C10.0042 0.414856 0.673828 9.85407 0.673828 21.4979C0.673828 33.1418 10.0042 42.581 21.5139 42.581Z" stroke="black" stroke-width="1.34764" stroke-miterlimit="10"/>
</svg>
