<svg width="43" height="43" viewBox="0 0 43 43" fill="none" xmlns="http://www.w3.org/2000/svg">
<path fill-rule="evenodd" clip-rule="evenodd" d="M22.8332 17.2V15.4783C22.8332 14.6403 23.3868 14.4453 23.7723 14.4453H26.1548V10.7614L22.8701 10.7448C19.2245 10.7448 18.4003 13.4953 18.4003 15.2502V17.1958H16.2925V21.4979H18.4167V32.2469H22.6651V21.4979H25.8186L25.9703 19.8095L26.204 17.2H22.825H22.8332Z" fill="black"/>
<path d="M21.2502 42.581C32.7599 42.581 42.0903 33.1418 42.0903 21.4979C42.0903 9.85407 32.7599 0.414856 21.2502 0.414856C9.74057 0.414856 0.410156 9.85407 0.410156 21.4979C0.410156 33.1418 9.74057 42.581 21.2502 42.581Z" stroke="black" stroke-width="1.34764" stroke-miterlimit="10"/>
</svg>
